<svg width="512" height="512" xmlns="http://www.w3.org/2000/svg">

 <g>
  <title>background</title>
  <rect fill="none" id="canvas_background" height="402" width="582" y="-1" x="-1"/>
 </g>
 <g>
  <title>Layer 1</title>
  <path id="svg_1" d="m254.969955,-4.582403c-143.377716,0 -259.552356,116.430997 -259.552356,260.125127c0,143.694061 116.17464,260.125122 259.552356,260.125122c143.37767,0 259.552383,-116.431061 259.552383,-260.125122c0,-143.69413 -116.174713,-260.125127 -259.552383,-260.125127zm0,21.635408c131.148819,0 237.964554,106.926426 237.964554,238.489719c0,58.152954 -20.839081,111.428558 -55.40448,152.823486c-24.95694,-10.254974 -82.233154,-30.139526 -115.925018,-40.144287c-2.994843,-0.875458 -3.369202,-1.12558 -3.369202,-13.381439c0,-10.129883 4.117889,-20.384827 8.235779,-29.139038c4.49231,-9.379486 9.60849,-25.262177 11.480255,-39.519012c5.240936,-6.12793 12.478394,-18.133759 16.970673,-41.14476c3.993134,-20.259766 2.121338,-27.638321 -0.499146,-34.516632c-0.249542,-0.750351 -0.623932,-1.500717 -0.748718,-2.126007c-0.99826,-4.752289 0.37439,-29.389145 3.868347,-48.523331c2.370941,-13.131332 -0.623932,-41.019745 -18.592896,-64.155869c-11.355469,-14.632042 -33.19278,-32.51564 -72.999115,-35.016838l-21.837326,0c-39.182419,2.501198 -60.895004,20.384796 -72.375183,35.016838c-18.093796,23.136124 -21.088608,51.024536 -18.717712,64.155869c3.493973,19.134186 4.866608,43.771042 3.868347,48.523331c-0.249588,0.875397 -0.499176,1.500717 -0.748734,2.251068c-2.620468,6.878342 -4.61705,14.256866 -0.499115,34.516647c4.617004,23.011017 11.729752,35.016846 16.970718,41.144745c1.871735,14.256836 7.112717,30.014465 11.480194,39.519043c3.2444,6.878296 4.741776,16.257813 4.741776,29.51416c0,12.380981 -0.499084,12.506012 -3.24437,13.38147c-35.064514,10.379974 -90.593727,30.389526 -112.805435,40.019226c-34.814938,-41.519989 -55.778778,-94.920685 -55.778778,-153.198669c0,-131.438248 106.81575,-238.489719 237.964584,-238.489719z"/>
 </g>
</svg>